<svg height="512pt" viewBox="-16 0 512 512" width="512pt" xmlns="http://www.w3.org/2000/svg"><path d="m435 241h45v30h-45zm0 0" fill="#cdf"/><path d="m435 451h-180v-30h180c8.277344 0 15-6.722656 15-15s-6.722656-15-15-15h-60c-41.351562 0-75-33.648438-75-75s33.648438-75 75-75v30c-24.8125 0-45 20.1875-45 45s20.1875 45 45 45h60c24.8125 0 45 20.1875 45 45s-20.1875 45-45 45zm0 0" fill="#293939"/><path d="m270 172v340h-270v-339.699219l68.699219 38.699219h132.601562zm0 0" fill="#4a696f"/><path d="m270 172v340h-135v-301h66.300781zm0 0" fill="#384949"/><path d="m0 0v172.300781l68.699219 68.699219h132.601562l68.699219-69v-172zm0 0" fill="#384949"/><path d="m270 0v172l-68.699219 69h-66.300781v-241zm0 0" fill="#293939"/><path d="m120 301h30v30h-30zm0 0" fill="#ff637b"/><path d="m60 60v91h150v-91zm0 0" fill="#4a696f"/><path d="m450 301h-45c-24.8125 0-45-20.1875-45-45s20.1875-45 45-45h45zm0 0" fill="#e63950"/><path d="m135 301h15v30h-15zm0 0" fill="#e63950"/><path d="m135 60h75v91h-75zm0 0" fill="#384949"/><path d="m135 361c-24.902344 0-45 20.097656-45 45s20.097656 45 45 45 45-20.097656 45-45-20.097656-45-45-45zm0 0" fill="#57d9ad"/><path d="m180 406c0 24.902344-20.097656 45-45 45v-90c24.902344 0 45 20.097656 45 45zm0 0" fill="#26bfa6"/></svg>