<svg height="512" viewBox="0 0 36 59" width="512" xmlns="http://www.w3.org/2000/svg"><g id="Page-1" fill="none" fill-rule="evenodd"><g id="004---Graphics-Card" fill-rule="nonzero"><path id="Shape" d="m6 5h26v52c0 1.1045695-.8954305 2-2 2h-22c-1.1045695 0-2-.8954305-2-2z" fill="#464f5d"/><path id="Shape" d="m21.485 8h-4.97c-.2651948.00005664-.5195073.10545063-.707.293l-3.515 3.515c-.1875494.1874927-.2929434.4418052-.293.707v4.97c.0000566.2651948.1054506.5195073.293.707l3.515 3.515c.1874927.1875494.4418052.2929434.707.293h4.97c.2651948-.0000566.5195073-.1054506.707-.293l3.515-3.515c.1875494-.1874927.2929434-.4418052.293-.707v-4.97c-.0000566-.2651948-.1054506-.5195073-.293-.707l-3.515-3.515c-.1874927-.18754937-.4418052-.29294336-.707-.293z" fill="#7f8284"/><path id="Shape" d="m21.485 25h-4.97c-.2651948.0000566-.5195073.1054506-.707.293l-3.515 3.515c-.1875494.1874927-.2929434.4418052-.293.707v4.97c.0000566.2651948.1054506.5195073.293.707l3.515 3.515c.1874927.1875494.4418052.2929434.707.293h4.97c.2651948-.0000566.5195073-.1054506.707-.293l3.515-3.515c.1875494-.1874927.2929434-.4418052.293-.707v-4.97c-.0000566-.2651948-.1054506-.5195073-.293-.707l-3.515-3.515c-.1874927-.1875494-.4418052-.2929434-.707-.293z" fill="#7f8284"/><path id="Shape" d="m21.485 42h-4.97c-.2651948.0000566-.5195073.1054506-.707.293l-3.515 3.515c-.1875494.1874927-.2929434.4418052-.293.707v4.97c.0000566.2651948.1054506.5195073.293.707l3.515 3.515c.1874927.1875494.4418052.2929434.707.293h4.97c.2651948-.0000566.5195073-.1054506.707-.293l3.515-3.515c.1875494-.1874927.2929434-.4418052.293-.707v-4.97c-.0000566-.2651948-.1054506-.5195073-.293-.707l-3.515-3.515c-.1874927-.1875494-.4418052-.2929434-.707-.293z" fill="#7f8284"/><path id="Shape" d="m19 14c-.2450559.0003187-.4816982-.0893563-.665-.252-2.323-2.066-1.1-5.056-.135-6.348.3313708-.4418278.9581722-.53137085 1.4-.2s.5313708.9581722.2 1.4c-.074.1-1.663 2.3-.137 3.654.309037.2758703.415986.7137221.2689278 1.1009975s-.5176732.6437841-.9319278.6450025z" fill="#2c2f38"/><path id="Shape" d="m19 23c-.3787721 0-.7250352-.2140024-.8944272-.5527864s-.132836-.744196.0944272-1.0472136c.074-.1 1.663-2.3.137-3.654-.4142136-.3672694-.4522694-1.0007864-.085-1.415s1.0007864-.4522694 1.415-.085c2.323 2.066 1.1 5.056.135 6.348-.1880136.2546323-.4854781.405219-.802.406z" fill="#2c2f38"/><path id="Shape" d="m17.375 14.592c-2.908 0-4.093-2.848-4.314-4.4-.0665013-.54002393.3109625-1.03411604.8494713-1.11193994.5385088-.07782391 1.0404165.28918369 1.1295287.82593994.019.13.431 2.782 2.487 2.682.5522847-.0325848 1.0264152.3887153 1.059.941s-.3887153 1.0264152-.941 1.059c-.092.001-.182.004-.27.004z" fill="#2c2f38"/><path id="Shape" d="m23.948 20.95c-.4960622-.0007827-.9165676-.3651072-.988-.856-.02-.13-.43-2.8-2.487-2.682-.5522847.0325848-1.0264152-.3887153-1.059-.941s.3887153-1.0264152.941-1.059c3.1-.183 4.356 2.793 4.584 4.392.0778973.5464215-.3016463 1.0526288-.848 1.131-.0472371.0084806-.0950313.0134939-.143.015z" fill="#2c2f38"/><path id="Shape" d="m14.819 17c-1.2353322-.0421964-2.4282693-.4608933-3.419-1.2-.4418278-.3313709-.5313708-.9581722-.2-1.4.3313709-.4418278.9581722-.5313708 1.4-.2.1.073 2.3 1.662 3.654.137.3672694-.4142136 1.0007864-.4522694 1.415-.085s.4522694 1.0007864.085 1.415c-.7315497.85852-1.8071594 1.3470337-2.935 1.333z" fill="#2c2f38"/><path id="Shape" d="m26 16c-.2163702 0-.4269038-.0701779-.6-.2-.1-.074-2.3-1.663-3.654-.137-.2375816.2679492-.6000653.3887962-.9509069.3170191s-.63674-.3252737-.75-.665c-.11326-.3397264-.0366747-.7140699.2009069-.9820191 2.066-2.322 5.055-1.105 6.348-.135.3452125.2571069.4871695.7062698.3524155 1.1150692-.1347541.4087995-.5159813.6855032-.9464155.6869308z" fill="#2c2f38"/><path id="Shape" d="m14.049 20.95c-.5252219.001022-.9617289-.4044516-.999374-.9283236-.0376451-.5238721.3364024-.9875916.856374-1.0616764.13-.02 2.8-.452 2.682-2.487-.0210787-.3572656.1500428-.6986379.4489045-.8955254s.6800596-.2193781 1-.059.5300168.4792598.5510955.8365254c.183 3.1-2.793 4.356-4.392 4.584-.0486626.0072782-.0977961.0109548-.147.011z" fill="#2c2f38"/><path id="Shape" d="m20.413 14.586c-.5300409.0009233-.9687283-.4118816-1-.941-.183-3.1 2.793-4.356 4.392-4.584.5400239-.06650128 1.034116.31096251 1.1119399.84947129.077824.53850881-.2891836 1.04041651-.8259399 1.12952871-.13.02-2.8.452-2.682 2.487.0324394.5511298-.387887 1.0242768-.939 1.057z" fill="#2c2f38"/><path id="Shape" d="m12 1h8c.5522847 0 1 .44771525 1 1v3h-10v-3c0-.55228475.4477153-1 1-1z" fill="#bdc3c7"/><path id="Shape" d="m14 1h4c.5522847 0 1 .44771525 1 1v3h-6v-3c0-.55228475.4477153-1 1-1z" fill="#ecf0f1"/><path id="Shape" d="m34 6h-33c-.55228475 0-1-.44771525-1-1s.44771525-1 1-1h33v-3c0-.55228475.4477153-1 1-1s1 .44771525 1 1v3c0 1.1045695-.8954305 2-2 2z" fill="#7f8284"/><path id="Shape" d="m1 12v21c1.1045695 0 2 .8954305 2 2s-.8954305 2-2 2v5c0 .5522847.44771525 1 1 1h4v-32h-4c-.55228475 0-1 .4477153-1 1z" fill="#4fba6f"/><path id="Shape" d="m1 15h2c.55228475 0 1 .4477153 1 1s-.44771525 1-1 1h-2z" fill="#f3d55b"/><path id="Shape" d="m1 19h2c.55228475 0 1 .4477153 1 1s-.44771525 1-1 1h-2z" fill="#f3d55b"/><path id="Shape" d="m1 23h2c.55228475 0 1 .4477153 1 1s-.44771525 1-1 1h-2z" fill="#f3d55b"/><path id="Shape" d="m1 27h2c.55228475 0 1 .4477153 1 1s-.44771525 1-1 1h-2z" fill="#f3d55b"/><path id="Shape" d="m1 39h2c.55228475 0 1 .4477153 1 1s-.44771525 1-1 1h-2z" fill="#f3d55b"/><path id="Shape" d="m32 17v12l-5.293-5.293c-.3903819-.3904999-.3903819-1.0235001 0-1.414z" fill="#2c2f38"/><path id="Shape" d="m11.293 23.707-5.293 5.293v-12l5.293 5.293c.3903819.3904999.3903819 1.0235001 0 1.414z" fill="#2c2f38"/><path id="Shape" d="m32 34v12l-5.293-5.293c-.3903819-.3904999-.3903819-1.0235001 0-1.414z" fill="#2c2f38"/><path id="Shape" d="m11.293 40.707-5.293 5.293v-12l5.293 5.293c.3903819.3904999.3903819 1.0235001 0 1.414z" fill="#2c2f38"/><path id="Shape" d="m32 51v6c-.0032948 1.1032019-.8967981 1.9967052-2 2h-2l-1.293-1.293c-.3903819-.3904999-.3903819-1.0235001 0-1.414z" fill="#2c2f38"/><path id="Shape" d="m11.293 57.707-1.293 1.293h-2c-1.10320187-.0032948-1.9967052-.8967981-2-2v-6l5.293 5.293c.3903819.3904999.3903819 1.0235001 0 1.414z" fill="#2c2f38"/><path id="Shape" d="m21.485 23h-4.97c-.5307192.0015488-1.0399572-.2094933-1.414-.586l-3.515-3.514c-.3767539-.3742866-.5878165-.8839344-.586-1.415v-4.97c-.0015488-.5307192.2094933-1.0399572.586-1.414l3.514-3.515c.3742866-.37675387.8839344-.5878165 1.415-.586h4.97c.5307192-.00154879 1.0399572.20949328 1.414.586l3.515 3.514c.3767539.3742866.5878165.8839344.586 1.415v4.97c.0015488.5307192-.2094933 1.0399572-.586 1.414l-3.514 3.515c-.3742866.3767539-.8839344.5878165-1.415.586zm-4.97-14-3.515 3.515v4.97l3.515 3.515h4.97l3.515-3.515v-4.97l-3.515-3.515z" fill="#2c2f38"/><circle id="Oval" cx="19" cy="15" fill="#95a5a5" r="3"/><g fill="#2c2f38"><path id="Shape" d="m19 31c-.2450559.0003187-.4816982-.0893563-.665-.252-2.323-2.066-1.1-5.056-.135-6.348.2143594-.2858125.5649147-.4355547.9196152-.3928203.3547006.0427344.6596589.2714531.8.6.1403412.3285469.0947442.7070078-.1196152.9928203-.074.1-1.663 2.3-.137 3.654.309037.2758703.415986.7137221.2689278 1.1009975s-.5176732.6437841-.9319278.6450025z"/><path id="Shape" d="m19 40c-.3787721 0-.7250352-.2140024-.8944272-.5527864s-.132836-.744196.0944272-1.0472136c.074-.1 1.663-2.3.137-3.654-.4142136-.3672694-.4522694-1.0007864-.085-1.415s1.0007864-.4522694 1.415-.085c2.323 2.066 1.1 5.056.135 6.348-.1880136.2546323-.4854781.405219-.802.406z"/><path id="Shape" d="m17.375 31.592c-2.908 0-4.093-2.848-4.314-4.4-.0665013-.5400239.3109625-1.034116.8494713-1.1119399.5385088-.077824 1.0404165.2891836 1.1295287.8259399.019.13.431 2.782 2.487 2.682.3572656-.0210787.698638.1500427.8955254.4489045.1968875.2988617.2193782.6800596.059 1-.1603781.3199404-.4792598.5300168-.8365254.5510955-.092.001-.182.004-.27.004z"/><path id="Shape" d="m23.948 37.95c-.4960622-.0007827-.9165676-.3651072-.988-.856-.02-.13-.43-2.8-2.487-2.682-.5522847.0325848-1.0264152-.3887153-1.059-.941s.3887153-1.0264152.941-1.059c3.1-.183 4.356 2.793 4.584 4.392.0778973.5464215-.3016463 1.0526288-.848 1.131-.0472371.0084806-.0950313.0134939-.143.015z"/><path id="Shape" d="m14.819 34c-1.2353322-.0421964-2.4282693-.4608933-3.419-1.2-.2858125-.2143594-.4355547-.5649147-.3928203-.9196152.0427344-.3547006.2714531-.6596589.6-.8.3285469-.1403412.7070078-.0947442.9928203.1196152.1.073 2.3 1.662 3.654.137.3672694-.4142136 1.0007864-.4522694 1.415-.085s.4522694 1.0007864.085 1.415c-.7315497.85852-1.8071594 1.3470337-2.935 1.333z"/><path id="Shape" d="m26 33c-.2163702 0-.4269038-.0701779-.6-.2-.1-.074-2.3-1.663-3.654-.137-.3672694.4142136-1.0007864.4522694-1.415.085s-.4522694-1.0007864-.085-1.415c2.066-2.322 5.055-1.105 6.348-.135.3452125.2571069.4871695.7062698.3524155 1.1150692-.1347541.4087995-.5159813.6855032-.9464155.6869308z"/><path id="Shape" d="m14.049 37.95c-.5252219.001022-.9617289-.4044516-.999374-.9283236-.0376451-.5238721.3364024-.9875916.856374-1.0616764.13-.02 2.8-.452 2.682-2.487-.0325848-.5522847.3887153-1.0264152.941-1.059s1.0264152.3887153 1.059.941c.183 3.1-2.793 4.356-4.392 4.584-.0486626.0072782-.0977961.0109548-.147.011z"/><path id="Shape" d="m20.413 31.586c-.5300409.0009233-.9687283-.4118816-1-.941-.183-3.1 2.793-4.356 4.392-4.584.5400239-.0665013 1.034116.3109625 1.1119399.8494713.077824.5385088-.2891836 1.0404165-.8259399 1.1295287-.13.02-2.8.452-2.682 2.487.0324394.5511298-.387887 1.0242768-.939 1.057z"/><path id="Shape" d="m21.485 40h-4.97c-.5307192.0015488-1.0399572-.2094933-1.414-.586l-3.515-3.514c-.3767539-.3742866-.5878165-.8839344-.586-1.415v-4.97c-.0015488-.5307192.2094933-1.0399572.586-1.414l3.514-3.515c.3742866-.3767539.8839344-.5878165 1.415-.586h4.97c.5307192-.0015488 1.0399572.2094933 1.414.586l3.515 3.514c.3767539.3742866.5878165.8839344.586 1.415v4.97c.0015488.5307192-.2094933 1.0399572-.586 1.414l-3.514 3.515c-.3742866.3767539-.8839344.5878165-1.415.586zm-4.97-14-3.515 3.515v4.97l3.515 3.515h4.97l3.515-3.515v-4.97l-3.515-3.515z"/></g><circle id="Oval" cx="19" cy="32" fill="#95a5a5" r="3"/><path id="Shape" d="m19 48c-.2450559.0003187-.4816982-.0893563-.665-.252-2.323-2.066-1.1-5.056-.135-6.348.3313708-.4418278.9581722-.5313708 1.4-.2s.5313708.9581722.2 1.4c-.074.1-1.663 2.3-.137 3.654.309037.2758703.415986.7137221.2689278 1.1009975s-.5176732.6437841-.9319278.6450025z" fill="#2c2f38"/><path id="Shape" d="m19 57c-.3787721 0-.7250352-.2140024-.8944272-.5527864s-.132836-.744196.0944272-1.0472136c.074-.1 1.663-2.3.137-3.654-.4142136-.3672694-.4522694-1.0007864-.085-1.415s1.0007864-.4522694 1.415-.085c2.323 2.066 1.1 5.056.135 6.348-.1880136.2546323-.4854781.405219-.802.406z" fill="#2c2f38"/><path id="Shape" d="m17.375 48.592c-2.908 0-4.093-2.848-4.314-4.4-.0665013-.5400239.3109625-1.034116.8494713-1.1119399.5385088-.077824 1.0404165.2891836 1.1295287.8259399.019.13.431 2.782 2.487 2.682.5522847-.0325848 1.0264152.3887153 1.059.941s-.3887153 1.0264152-.941 1.059c-.092.001-.182.004-.27.004z" fill="#2c2f38"/><path id="Shape" d="m23.948 54.95c-.4960622-.0007827-.9165676-.3651072-.988-.856-.02-.13-.43-2.8-2.487-2.682-.3572656.0210787-.698638-.1500427-.8955254-.4489045-.1968875-.2988617-.2193782-.6800596-.059-1 .1603781-.3199404.4792598-.5300168.8365254-.5510955 3.1-.183 4.356 2.793 4.584 4.392.0778973.5464215-.3016463 1.0526288-.848 1.131-.0472371.0084806-.0950313.0134939-.143.015z" fill="#2c2f38"/><path id="Shape" d="m14.819 51c-1.2353322-.0421964-2.4282693-.4608933-3.419-1.2-.2858125-.2143594-.4355547-.5649147-.3928203-.9196152.0427344-.3547006.2714531-.6596589.6-.8.3285469-.1403412.7070078-.0947442.9928203.1196152.1.073 2.3 1.662 3.654.137.3672694-.4142136 1.0007864-.4522694 1.415-.085s.4522694 1.0007864.085 1.415c-.7315497.85852-1.8071594 1.3470337-2.935 1.333z" fill="#2c2f38"/><path id="Shape" d="m26 50c-.2163702 0-.4269038-.0701779-.6-.2-.1-.074-2.3-1.663-3.654-.137-.2375816.2679492-.6000653.3887962-.9509069.3170191s-.63674-.3252737-.75-.665c-.11326-.3397264-.0366747-.7140699.2009069-.9820191 2.066-2.322 5.055-1.105 6.348-.135.3452125.2571069.4871695.7062698.3524155 1.1150692-.1347541.4087995-.5159813.6855032-.9464155.6869308z" fill="#2c2f38"/><path id="Shape" d="m14.049 54.95c-.5252219.001022-.9617289-.4044516-.999374-.9283236-.0376451-.5238721.3364024-.9875916.856374-1.0616764.13-.02 2.8-.452 2.682-2.487-.0210787-.3572656.1500427-.698638.4489045-.8955254.2988617-.1968875.6800596-.2193782 1-.059.3199404.1603781.5300168.4792598.5510955.8365254.183 3.1-2.793 4.356-4.392 4.584-.0486626.0072782-.0977961.0109548-.147.011z" fill="#2c2f38"/><path id="Shape" d="m20.413 48.586c-.5300409.0009233-.9687283-.4118816-1-.941-.183-3.1 2.793-4.356 4.392-4.584.5400239-.0665013 1.034116.3109625 1.1119399.8494713.077824.5385088-.2891836 1.0404165-.8259399 1.1295287-.13.02-2.8.452-2.682 2.487.0324394.5511298-.387887 1.0242768-.939 1.057z" fill="#2c2f38"/><path id="Shape" d="m21.485 57h-4.97c-.5307192.0015488-1.0399572-.2094933-1.414-.586l-3.515-3.514c-.3767539-.3742866-.5878165-.8839344-.586-1.415v-4.97c-.0015488-.5307192.2094933-1.0399572.586-1.414l3.514-3.515c.3742866-.3767539.8839344-.5878165 1.415-.586h4.97c.5307192-.0015488 1.0399572.2094933 1.414.586l3.515 3.514c.3767539.3742866.5878165.8839344.586 1.415v4.97c.0015488.5307192-.2094933 1.0399572-.586 1.414l-3.514 3.515c-.3742866.3767539-.8839344.5878165-1.415.586zm-4.97-14-3.515 3.515v4.97l3.515 3.515h4.97l3.515-3.515v-4.97l-3.515-3.515z" fill="#2c2f38"/><circle id="Oval" cx="19" cy="49" fill="#95a5a5" r="3"/></g></g></svg>