<svg height="512" viewBox="0 0 58 58" width="512" xmlns="http://www.w3.org/2000/svg"><g id="Page-1" fill="none" fill-rule="evenodd"><g id="015---Keyboard" fill-rule="nonzero"><path id="Shape" d="m8 21c-.55228475 0-1-.4477153-1-1v-9c.00440864-3.86416566 3.1358343-6.99559136 7-7h28c.5522847 0 1 .44771525 1 1s-.4477153 1-1 1h-28c-2.7600532.00330612-4.99669388 2.23994685-5 5v9c0 .5522847-.44771525 1-1 1z" fill="#95a5a5"/><rect id="Rectangle-path" fill="#955ba5" height="33" rx="4" width="58" y="25"/><path id="Shape" d="m7 20h2c.55228475 0 1 .4477153 1 1v4h-4v-4c0-.5522847.44771525-1 1-1z" fill="#2c2f38"/><path id="Shape" d="m56 10h-12c-1.1032019-.0032948-1.9967052-.89679813-2-2v-6c.0032948-1.10320187.8967981-1.9967052 2-2h12c-1.1032019.0032948-1.9967052.89679813-2 2v6c.0032948 1.10320187.8967981 1.9967052 2 2z" fill="#35495e"/><path id="Shape" d="m58 2v6c0 1.1045695-.8954305 2-2 2s-2-.8954305-2-2v-6c0-1.1045695.8954305-2 2-2s2 .8954305 2 2z" fill="#2c2f38"/><g fill="#3d324c"><rect id="Rectangle-path" height="4" rx="1" width="4" x="3" y="29"/><rect id="Rectangle-path" height="4" rx="1" width="4" x="7" y="36"/><rect id="Rectangle-path" height="4" rx="1" width="4" x="15" y="36"/><rect id="Rectangle-path" height="4" rx="1" width="4" x="23" y="36"/><rect id="Rectangle-path" height="4" rx="1" width="4" x="31" y="36"/><rect id="Rectangle-path" height="4" rx="1" width="4" x="39" y="36"/><rect id="Rectangle-path" height="4" rx="1" width="4" x="47" y="36"/><rect id="Rectangle-path" height="4" rx="1" width="8" x="3" y="50"/><rect id="Rectangle-path" height="4" rx="1" width="4" x="15" y="50"/><rect id="Rectangle-path" height="4" rx="1" width="12" x="23" y="50"/><rect id="Rectangle-path" height="4" rx="1" width="4" x="39" y="50"/><rect id="Rectangle-path" height="4" rx="1" width="8" x="47" y="50"/><rect id="Rectangle-path" height="4" rx="1" width="4" x="11" y="29"/><rect id="Rectangle-path" height="4" rx="1" width="4" x="19" y="29"/><rect id="Rectangle-path" height="4" rx="1" width="4" x="27" y="29"/><rect id="Rectangle-path" height="4" rx="1" width="4" x="35" y="29"/><rect id="Rectangle-path" height="4" rx="1" width="4" x="43" y="29"/><rect id="Rectangle-path" height="4" rx="1" width="4" x="51" y="29"/><rect id="Rectangle-path" height="4" rx="1" width="4" x="3" y="43"/><rect id="Rectangle-path" height="4" rx="1" width="4" x="11" y="43"/><rect id="Rectangle-path" height="4" rx="1" width="4" x="19" y="43"/><rect id="Rectangle-path" height="4" rx="1" width="4" x="27" y="43"/><rect id="Rectangle-path" height="4" rx="1" width="4" x="35" y="43"/><rect id="Rectangle-path" height="4" rx="1" width="4" x="43" y="43"/><rect id="Rectangle-path" height="4" rx="1" width="4" x="51" y="43"/></g></g></g></svg>