<svg height="512" viewBox="0 0 512 512" width="512" xmlns="http://www.w3.org/2000/svg"><g id="flat"><path d="m56 48h432v416h-432z" fill="#02c26a"/><path d="m392 80h96v304h-96z" fill="#718799"/><path d="m56 272h80v192h-80z" fill="#ffc431"/><path d="m56 48h104v72h-104z" fill="#ffc431"/><path d="m24 72h32v32h-32z" fill="#ffb401"/><path d="m24 288h32v32h-32z" fill="#ffb401"/><path d="m24 360h32v64h-32z" fill="#ffb401"/><path d="m24 384h32v16h-32z" fill="#f78e00"/><path d="m56 120h104v152h-104z" fill="#718799"/><path d="m88 120h16v152h-16z" fill="#62798c"/><path d="m120 120h16v152h-16z" fill="#62798c"/><path d="m56 328h80v16h-80z" fill="#ffb401"/><circle cx="184" cy="424" fill="#00b55b" r="16"/><circle cx="184" cy="392" fill="#00b55b" r="16"/><path d="m232 416h256v48h-256z" fill="#00b55b"/><path d="m252.672 432h224v16h-224z" fill="#00a64f"/><path d="m232 344h160v72h-160z" fill="#62798c"/><path d="m232 304h160v40h-160z" fill="#556c80"/><path d="m160 144h64v128h-64z" fill="#62798c"/><path d="m160 168h64v16h-64z" fill="#556c80"/><path d="m160 200h64v16h-64z" fill="#556c80"/><path d="m160 232h64v16h-64z" fill="#556c80"/><path d="m232 320h-32a8 8 0 0 1 -8-8v-40h-24v40a32 32 0 0 0 32 32h32z" fill="#00b55b"/><path d="m280 152h112v120h-112z" fill="#ffc431"/><path d="m304 176h64v72h-64z" fill="#ffb401"/><path d="m328 88h64v32h-64z" fill="#ffc431"/><path d="m200 48h96v64h-96z" fill="#8098ab"/><path d="m296 72h-24v-24h-16v24h-16v-24h-16v24h-24v16h24v24h16v-24h16v24h16v-24h24z" fill="#718799"/><path d="m416 96h16v272h-16z" fill="#62798c"/><path d="m448 96h16v272h-16z" fill="#62798c"/><path d="m392 48h96v32h-96z" fill="#8098ab"/><path d="m392 384h96v32h-96z" fill="#8098ab"/><path d="m432 384h16v32h-16z" fill="#718799"/><path d="m432 48h16v32h-16z" fill="#718799"/><g fill="#8098ab"><circle cx="224" cy="256" r="16"/><circle cx="224" cy="224" r="16"/><circle cx="224" cy="192" r="16"/><circle cx="224" cy="160" r="16"/></g><path d="m352 88h16v32h-16z" fill="#ffb401"/></g></svg>