<svg height="512" viewBox="0 0 39 58" width="512" xmlns="http://www.w3.org/2000/svg"><g id="Page-1" fill="none" fill-rule="evenodd"><g id="006---RAM" fill-rule="nonzero"><path id="Shape" d="m34 1v56h-9.764c-.7576917-.0000257-1.4503118-.428219-1.789-1.106l-1.447-2.894v-48l1.447-2.894c.3386882-.67778095 1.0313083-1.10597427 1.789-1.106z" fill="#4c8056"/><g fill="#2c2f38"><path id="Shape" d="m9 2h-8c-.55228475 0-1-.44771525-1-1s.44771525-1 1-1h8c.55228475 0 1 .44771525 1 1s-.44771525 1-1 1z"/><path id="Shape" d="m9 6h-8c-.55228475 0-1-.44771525-1-1s.44771525-1 1-1h8c.55228475 0 1 .44771525 1 1s-.44771525 1-1 1z"/><path id="Shape" d="m9 10h-8c-.55228475 0-1-.44771525-1-1s.44771525-1 1-1h8c.55228475 0 1 .44771525 1 1s-.44771525 1-1 1z"/><path id="Shape" d="m9 14h-8c-.55228475 0-1-.4477153-1-1s.44771525-1 1-1h8c.55228475 0 1 .4477153 1 1s-.44771525 1-1 1z"/><path id="Shape" d="m9 18h-8c-.55228475 0-1-.4477153-1-1s.44771525-1 1-1h8c.55228475 0 1 .4477153 1 1s-.44771525 1-1 1z"/><path id="Shape" d="m9 22h-8c-.55228475 0-1-.4477153-1-1s.44771525-1 1-1h8c.55228475 0 1 .4477153 1 1s-.44771525 1-1 1z"/><path id="Shape" d="m9 26h-8c-.55228475 0-1-.4477153-1-1s.44771525-1 1-1h8c.55228475 0 1 .4477153 1 1s-.44771525 1-1 1z"/><path id="Shape" d="m9 30h-8c-.55228475 0-1-.4477153-1-1s.44771525-1 1-1h8c.55228475 0 1 .4477153 1 1s-.44771525 1-1 1z"/><path id="Shape" d="m9 34h-8c-.55228475 0-1-.4477153-1-1s.44771525-1 1-1h8c.55228475 0 1 .4477153 1 1s-.44771525 1-1 1z"/><path id="Shape" d="m9 38h-8c-.55228475 0-1-.4477153-1-1s.44771525-1 1-1h8c.55228475 0 1 .4477153 1 1s-.44771525 1-1 1z"/><path id="Shape" d="m9 42h-8c-.55228475 0-1-.4477153-1-1s.44771525-1 1-1h8c.55228475 0 1 .4477153 1 1s-.44771525 1-1 1z"/><path id="Shape" d="m9 46h-8c-.55228475 0-1-.4477153-1-1s.44771525-1 1-1h8c.55228475 0 1 .4477153 1 1s-.44771525 1-1 1z"/><path id="Shape" d="m9 50h-8c-.55228475 0-1-.4477153-1-1s.44771525-1 1-1h8c.55228475 0 1 .4477153 1 1s-.44771525 1-1 1z"/><path id="Shape" d="m9 54h-8c-.55228475 0-1-.4477153-1-1s.44771525-1 1-1h8c.55228475 0 1 .4477153 1 1s-.44771525 1-1 1z"/><path id="Shape" d="m9 58h-8c-.55228475 0-1-.4477153-1-1s.44771525-1 1-1h8c.55228475 0 1 .4477153 1 1s-.44771525 1-1 1z"/></g><path id="Shape" d="m30 6v46c0 .5522847-.4477153 1-1 1h-10.04c-.6066233.0013943-1.1800676.2770886-1.56.75l-2.8 3.5c-.3795038.4740001-.9537939.7499242-1.561.75h-5.039v-58h5.039c.6073745.00031882 1.1816946.2766253 1.561.751l2.8 3.5c.3801297.4725369.9535444.74784947 1.56.749h10.04c.5522847 0 1 .44771525 1 1z" fill="#393f4a"/><path id="Shape" d="m13 9h1.866c.0888197.00012065.1772401.01188762.263.035l10.134 2.765c.4351925.118632.7370921.5139279.737.965v6.235c0 .5522847-.4477153 1-1 1h-12c-.5522847 0-1-.4477153-1-1v-9c0-.55228475.4477153-1 1-1z" fill="#cc4b4c"/><path id="Shape" d="m13 49h1.866c.0888197-.0001207.1772401-.0118876.263-.035l10.134-2.765c.4348342-.1185342.7366413-.5132994.737-.964v-6.236c0-.5522847-.4477153-1-1-1h-12c-.5522847 0-1 .4477153-1 1v9c0 .5522847.4477153 1 1 1z" fill="#cc4b4c"/><rect id="Rectangle-path" fill="#cc4b4c" height="10" rx="1" width="14" x="12" y="24"/><path id="Shape" d="m39 3v4h-5v-6h3c1.1032019.0032948 1.9967052.89679813 2 2z" fill="#71c285"/><path id="Rectangle-path" d="m34 7h5v4h-5z" fill="#f3d55b"/><path id="Rectangle-path" d="m34 11h5v4h-5z" fill="#71c285"/><path id="Rectangle-path" d="m34 15h5v4h-5z" fill="#f3d55b"/><path id="Rectangle-path" d="m34 19h5v4h-5z" fill="#71c285"/><path id="Rectangle-path" d="m34 23h5v4h-5z" fill="#f3d55b"/><path id="Rectangle-path" d="m34 27h5v4h-5z" fill="#71c285"/><path id="Shape" d="m39 31v3c0 .5522847-.4477153 1-1 1h-4v-4z" fill="#f3d55b"/><path id="Shape" d="m39 40v3h-5v-4h4c.5522847 0 1 .4477153 1 1z" fill="#f3d55b"/><path id="Rectangle-path" d="m34 43h5v4h-5z" fill="#71c285"/><path id="Rectangle-path" d="m34 47h5v4h-5z" fill="#f3d55b"/><path id="Shape" d="m39 51v4c-.0032948 1.1032019-.8967981 1.9967052-2 2h-3v-6z" fill="#71c285"/></g></g></svg>