<?xml version="1.0" encoding="UTF-8"?><svg id="Layer_2" xmlns="http://www.w3.org/2000/svg" viewBox="0 0 148.54 223.26"><g id="Layer_1-2"><path d="m148.43,102.26c.29,21.26-.05,42.51-4.27,63.47-1.73,8.58-5.44,15.97-12.23,21.81-6.59,5.66-12.8,11.76-19.25,17.58-23.72,21.41-63.31,24.27-88.35,6.43-15.63-11.14-21.45-27.27-22.61-45.46-.99-15.53-2.02-31.13-1.63-46.66.26-10.51,2.55-21.05,4.67-31.42,3.06-14.93,7.13-29.58,15.14-42.84C35.79,18.88,58.59,2.96,89.44.21c20.57-1.83,43.41,8.14,51.8,33.14,5.35,15.93,6.27,32.26,7.13,48.7.35,6.72.06,13.47.06,20.21ZM11.32,115.52c17.69-.77,35.17-1.19,52.6-2.39,17.13-1.18,34.19-3.37,51.31-4.7,7.34-.57,14.77-.1,23.19-.1-.69-15.31-.79-29.83-2.19-44.22-.96-9.79-3.12-19.58-5.87-29.04-3.33-11.44-11.31-19.11-22.81-22.67-22.75-7.03-42.61.41-60.09,14.15C19.17,48.8,12.46,80.52,11.32,115.52Z"/></g></svg>