<svg width="605" height="606" viewBox="0 0 605 606" fill="none" xmlns="http://www.w3.org/2000/svg">
<path d="M547.868 479.105C632.728 359.448 621.885 190.241 512.737 84.9857C403.589 -20.2699 235.625 -26.5453 117.602 64.1847C106.868 72.1504 96.1894 83.2234 85.5113 94.2965C74.8332 105.369 65.6806 114.861 56.5843 127.459C-28.2763 247.116 -17.4334 416.323 91.7148 521.579C200.863 626.834 368.827 633.11 486.85 542.38C497.584 534.414 508.262 523.341 518.941 512.268C529.619 501.195 538.771 491.704 547.868 479.105ZM108.729 174.691C116.3 163.675 125.396 151.076 136.074 140.003C146.752 128.93 157.487 120.965 169.747 111.417L500.364 430.243C492.794 441.26 483.697 453.858 473.019 464.931C462.341 476.004 451.607 483.97 439.347 493.518L108.729 174.691Z" fill="#763535"/>
</svg>
