<svg width="737" height="645" viewBox="0 0 737 645" fill="none" xmlns="http://www.w3.org/2000/svg">
<path d="M318.5 137.667C306.833 60.6667 240.333 0 159.833 0C79.3333 0 12.8333 59.5 1.16667 137.667C0 144.667 0 152.833 0 161C0 169.167 0 176.167 1.16667 184.333C12.8333 261.333 79.3333 322 159.833 322C240.333 322 306.833 262.5 318.5 184.333C319.667 177.333 319.667 169.167 319.667 161C319.667 152.833 319.667 145.833 318.5 137.667ZM38.5 183.167C37.3333 176.167 36.1667 168 36.1667 159.833C36.1667 151.667 37.3333 144.667 38.5 136.5H282.34C283.507 143.5 284.673 151.667 284.673 159.833C284.673 168 283.507 175 282.34 183.167H38.5Z" fill="black"/>
<path d="M659.25 366.59C695.445 315.555 690.82 243.386 644.267 198.493C597.714 153.6 526.075 150.923 475.736 189.621C471.158 193.018 466.603 197.741 462.049 202.464C457.495 207.187 453.591 211.235 449.711 216.608C413.517 267.644 418.142 339.813 464.695 384.706C511.248 429.599 582.887 432.275 633.226 393.578C637.804 390.18 642.358 385.458 646.913 380.735C651.467 376.012 655.371 371.964 659.25 366.59ZM471.952 236.754C475.181 232.055 479.06 226.681 483.615 221.959C488.169 217.236 492.748 213.838 497.977 209.766L638.99 345.75C635.761 350.449 631.881 355.822 627.327 360.545C622.772 365.268 618.194 368.665 612.965 372.738L471.952 236.754Z" fill="black"/>
<path d="M420.869 497.214C417.184 434.756 368.432 381.342 304.029 375.436C239.627 369.531 182.059 412.254 166.991 473.935C165.544 479.449 164.945 485.983 164.346 492.516C163.747 499.05 163.233 504.65 163.568 511.269C167.253 573.728 216.004 627.142 280.407 633.047C344.81 638.953 402.377 596.229 417.445 534.549C418.892 529.035 419.491 522.501 420.09 515.967C420.689 509.434 421.203 503.834 420.869 497.214ZM193.521 513.075C193.101 507.389 192.767 500.77 193.366 494.236C193.965 487.703 195.412 482.188 196.945 475.74L392.025 493.628C392.445 499.314 392.779 505.933 392.18 512.467C391.581 519.001 390.134 524.515 388.602 530.963L193.521 513.075Z" fill="black"/>
</svg>
