<svg width="443" height="545" viewBox="0 0 443 545" fill="none" xmlns="http://www.w3.org/2000/svg">
<path d="M181.582 67.5209L112.749 179.521L89.4156 218.021L20.5822 330.021C-20.2511 396.521 1.91555 482.848 67.2489 523.688C133.749 564.521 220.076 542.354 260.916 477.021L329.749 365.021L353.082 326.521L421.916 214.521C462.749 148.021 440.582 61.6942 375.249 20.8542C308.749 -19.9791 222.422 1.0209 181.582 67.5209ZM222.416 453.681C195.582 498.014 136.082 513.181 91.7489 485.181C47.4155 458.348 33.4155 400.014 60.2489 354.514L129.082 242.514L292.416 341.681L222.416 453.681Z" fill="black"/>
</svg>
